<svg id="Layer_1" xmlns="http://www.w3.org/2000/svg" width="320" height="268"><style>.st0{fill:#feb960}.st2{fill:#38c695}.st3{fill:#f16048}.st4{fill:#4abc92}.st5{fill:#9b7eb9}.st6{fill:#fff}.st7{fill:#616261}.st8{fill:#fcb961}</style><path id="price" class="st0" d="M45 21.9c0 5.5-1.9 10.2-5.8 14.1s-8.6 5.9-14 5.9c-5.5 0-10.2-2-14-5.9-4-3.9-5.9-8.6-5.9-14.1s1.9-10.2 5.8-14.1 8.6-5.9 14-5.9c5.5 0 10.2 2 14 5.9 4 3.9 5.9 8.6 5.9 14.1zm-1.5 0c0-5.1-1.8-9.4-5.4-13-3.6-3.6-7.9-5.4-12.9-5.4s-9.4 1.8-13 5.4-5.4 7.9-5.4 13 1.8 9.4 5.4 13 7.9 5.4 12.9 5.4 9.3-1.8 12.9-5.4 5.5-8 5.5-13zm-6.7-7.2c.6.6.5 1.1-.1 1.7L23.1 29.8c-.2.2-.4.3-.7.3-.4 0-.7-.1-.8-.3l-5.3-5.3c-.6-.6-.6-1.1 0-1.7s1.1-.6 1.7 0l4.5 4.5 12.8-12.5c.4-.6 1-.6 1.5-.1z"/><path id="clock" d="M6.9 67.2c0 5.1 1.8 9.4 5.3 13 3.6 3.6 7.9 5.4 13 5.4s9.4-1.8 13-5.4c3.6-3.6 5.3-7.9 5.3-13s-1.8-9.4-5.3-13c-3.6-3.6-7.9-5.4-13-5.4s-9.4 1.8-13 5.4c-3.5 3.6-5.3 7.9-5.3 13zm38.2 0c0 5.5-1.9 10.2-5.8 14.1s-8.6 5.9-14.1 5.9-10.2-2-14.1-5.9c-3.8-3.9-5.8-8.6-5.8-14.1s2-10.2 5.8-14.1 8.6-5.9 14.1-5.9 10.2 2 14.1 5.9 5.8 8.6 5.8 14.1zm-7.6-7.7l-1.3-1.3-11 11.2-7.6-7.8-1.3 1.3 8.9 8.8 12.3-12.2zm-12.3-8.6c-.4 0-.7.1-.9.4-.3.3-.4.6-.4.9 0 .4.1.7.4.9.3.3.6.4.9.4.4 0 .7-.1.9-.4.3-.3.4-.6.4-.9 0-.4-.1-.7-.4-.9-.2-.3-.5-.4-.9-.4zm0 30c-.4 0-.7.1-.9.4-.3.3-.4.6-.4.9 0 .4.1.7.4.9.3.3.6.4.9.4.4 0 .7-.1.9-.4.3-.3.4-.6.4-.9 0-.4-.1-.7-.4-.9-.2-.3-.5-.4-.9-.4zm-14.9-15c-.4 0-.7.1-.9.4-.3.3-.4.6-.4.9 0 .4.1.7.4.9.3.3.6.4.9.4.4 0 .7-.1.9-.4.3-.3.4-.6.4-.9 0-.4-.1-.7-.4-.9-.2-.3-.5-.4-.9-.4zm29.9 0c-.4 0-.7.1-.9.4-.3.3-.4.6-.4.9 0 .4.1.7.4.9.3.3.6.4.9.4.4 0 .7-.1.9-.4.3-.3.4-.6.4-.9 0-.4-.1-.7-.4-.9-.3-.3-.6-.4-.9-.4z" fill="#b27cf5"/><path id="check" class="st2" d="M45.2 112.6c0 5.5-2 10.2-5.9 14.1-3.9 3.9-8.6 5.9-14.1 5.9s-10.2-2-14.1-5.9c-4-3.8-5.9-8.5-5.9-14.1 0-5.5 2-10.2 5.9-14.1s8.5-5.9 14.1-5.9c5.5 0 10.2 2 14.1 5.9s5.9 8.6 5.9 14.1zm-1.7 0c0-5.1-1.8-9.4-5.4-13-3.5-3.5-7.8-5.3-12.9-5.3s-9.4 1.8-13 5.4-5.4 7.9-5.4 13 1.8 9.4 5.4 13c3.6 3.6 7.9 5.4 13 5.4s9.4-1.8 13-5.4c3.5-3.6 5.3-8 5.3-13.1zm-20.9-2.5c1.2.7 2.5 1.3 3.9 1.8 1.4.4 2.7 1.2 3.9 2.1 1.2 1 1.8 2.2 1.9 3.8 0 1.5-.5 2.7-1.6 3.7-1 1-2.5 1.6-4.3 1.8v2.7h-1.8v-2.9c-2.8-.1-4.9-.9-6.3-2.5l1.3-1.5.6.5c.5.4 1.2.8 2.1 1.2 1 .4 2 .6 3 .6 1.3 0 2.4-.3 3.2-1 .9-.7 1.3-1.5 1.3-2.5 0-1.1-.6-2.1-1.8-2.9-1.2-.8-2.5-1.4-3.9-1.8s-2.7-1.1-3.9-2.1-1.8-2.1-1.8-3.6c0-1.4.5-2.6 1.6-3.6 1.1-1.1 2.5-1.7 4.1-1.8v-2.8H26v2.9c2.3.1 4.1.8 5.3 2l-1.2 1.7-.6-.5c-.4-.3-1-.6-1.9-.9-.8-.3-1.7-.5-2.5-.5-1.4 0-2.5.3-3.3 1-.9.7-1.3 1.5-1.3 2.5.5 1 1 1.9 2.1 2.6z"/><path id="focus-web" class="st3" d="M106.2 40.7H58.9V9.8h47.3v30.9zm-1.8-29.2H60.6V39h43.8V11.5zM68.4 8h-1.8V2h47.3v30.9h-6v-1.7h4.3V3.7H68.4V8zm33.5 14.6h-7.7V14h7.7v8.6zm-1.7-6.9h-4.3v5.2h4.3v-5.2zM86.4 36.4h1.7V14h-1.7v22.4zM63.2 17.5h20.6v-1.7H63.2v1.7zm0 4.3h18v-1.7h-18v1.7zm0 4.3h18.9v-1.7H63.2v1.7z"/><path id="focus-ui" class="st4" d="M95 62.3l18.9-7.2v41.5L95 103.8l-17.2-6.9-18.9 7.2V62.6l18.9-7.2L95 62.3zM78.9 95.9l16 6.3V63.3l-16-6.3v38.9zm-18 5.2l16-6.1V58.1l-16 6.1v36.9zm51-43l-16 6.1v36.9l16-6.1V58.1z"/><path id="focus-photo" class="st5" d="M105.3 153.9H58.9v-36.1h46.4v36.1zm-44.7-34.4v22.9l11.2-11.3 12.2 14 8.5-5.2 11.1 9.6v-30h-43zm43 32.7v-.4l-11.3-9.7-8.7 5.2-11.8-13.6-11.2 11.1v7.4h43zm-37-41.3h47.3V147h-7.7v-1.7h6v-32.7H68.4v4.3h-1.8v-6zm21.5 18.9c0-1.4.5-2.6 1.5-3.7 1-1 2.2-1.5 3.7-1.5 1.4 0 2.6.5 3.7 1.5 1 1 1.5 2.2 1.5 3.7 0 1.4-.5 2.7-1.5 3.7s-2.2 1.5-3.7 1.5c-1.4 0-2.7-.5-3.7-1.5s-1.5-2.2-1.5-3.7zm1.7 0c0 1 .3 1.8 1 2.5s1.5 1 2.5 1 1.8-.3 2.5-1c.6-.6 1-1.5 1-2.5s-.3-1.8-1-2.5c-.6-.6-1.5-1-2.5-1s-1.8.3-2.5 1c-.6.7-1 1.5-1 2.5z"/><path id="focus-develop" class="st0" d="M92.5 202.5H63v-41.6h29.5v41.6zm-28.1-40.4v4h26.8v-4H64.4zm0 5.2v26h26.8v-26H64.4zm26.8 34v-6.6H64.4v6.6h26.8zm-16.1-36.6h5.4v-1.2h-5.4v1.2zm4.7 33.2c0 .5-.2 1-.5 1.4-.4.4-.9.5-1.4.5s-1.1-.2-1.4-.5c-.4-.4-.5-.8-.5-1.4 0-.5.2-1 .5-1.4.4-.4.9-.5 1.4-.5s1.1.2 1.4.5c.3.5.5.9.5 1.4zm-2-.6c-.4 0-.6.2-.6.6 0 .4.2.6.6.6s.6-.2.6-.6c.1-.4-.2-.6-.6-.6zm15-26h17.1v31.2H92.8v-31.2zm16.1 30.3v-4.9h-15v4.9h15zm0-6v-19.4h-15v19.4h15zm-15-23.4v2.9H109v-2.9H93.9zm5.5 2h4v-.9h-4v.9zm3.5 24.9c0 .4-.1.7-.4 1s-.6.4-1.1.4-.8-.1-1.1-.4c-.3-.3-.4-.6-.4-1s.1-.7.4-1 .6-.4 1.1-.4.8.1 1.1.4c.3.2.4.6.4 1zm-1.5-.6c-.3 0-.5.2-.5.5s.2.5.5.5.5-.2.5-.5c.1-.2-.2-.5-.5-.5z"/><path id="play" class="st2" d="M266.3 135.5l17.8 13.8v1.9l-17.8 13.7-2.3-.9v-27.6l2.3-.9zm.3 25.9l14.2-11.2-14.2-11.3v22.5zm45-11.2c0 11-3.9 20.5-11.7 28.3-7.8 7.8-17.3 11.7-28.3 11.7s-20.5-3.9-28.3-11.7-11.7-17.3-11.7-28.3 3.9-20.5 11.7-28.3 17.3-11.7 28.3-11.7 20.5 3.9 28.3 11.7 11.7 17.3 11.7 28.3zm-2.5 0c0-10.2-3.6-19.1-10.9-26.6-7.5-7.3-16.4-10.9-26.6-10.9s-19.1 3.6-26.6 10.9c-7.3 7.5-10.9 16.4-10.9 26.6s3.6 19.1 10.9 26.6c7.5 7.3 16.4 10.9 26.6 10.9s19.1-3.6 26.6-10.9c7.3-7.5 10.9-16.4 10.9-26.6z"/><path id="plus" class="st6" d="M285.3 35h-16v-1.9h15.9V17.2h1.9v15.9H303V35h-16v15.9h-1.9l.2-15.9zm-29.1-.9c0-8.3 2.9-15.4 8.8-21.2 5.8-5.9 12.9-8.8 21.2-8.8 8.3 0 15.4 2.9 21.2 8.8 5.9 5.8 8.8 12.9 8.8 21.2s-2.9 15.4-8.8 21.2c-5.8 5.9-12.9 8.8-21.2 8.8-8.3 0-15.4-2.9-21.2-8.8-5.9-5.8-8.8-12.9-8.8-21.2zm1.9 0c0 7.7 2.7 14.3 8.2 19.9 5.6 5.5 12.3 8.2 19.9 8.2 7.7 0 14.3-2.7 19.9-8.2 5.5-5.6 8.2-12.3 8.2-19.9 0-7.7-2.7-14.3-8.2-19.9-5.6-5.5-12.2-8.2-19.9-8.2-7.7 0-14.3 2.7-19.9 8.2-5.5 5.6-8.2 12.2-8.2 19.9z"/><path id="team-link" class="st3" d="M40.6 143.4c0 1.5-.5 2.8-1.6 3.8-1 1-2.3 1.6-3.8 1.6-2 0-3.6-.9-4.6-2.7l-15.5 6.6c.1.5.2 1 .2 1.4 0 .9-.2 1.7-.6 2.6l10 7.2c1.1-1.2 2.4-1.8 4-1.8 1.5 0 2.7.5 3.8 1.6 1 1.1 1.6 2.3 1.6 3.8s-.5 2.7-1.6 3.8c-1 1-2.3 1.6-3.8 1.6s-2.7-.5-3.8-1.6c-1-1-1.6-2.3-1.6-3.8 0-1 .2-1.8.5-2.5l-10-7.3c-1 1.1-2.3 1.7-3.9 1.7-1.5 0-2.7-.5-3.8-1.5-1-1-1.6-2.3-1.6-3.8s.5-2.8 1.6-3.8c1-1 2.3-1.5 3.8-1.5 2.1 0 3.6.9 4.6 2.7l15.7-6.6c-.2-.5-.2-1-.2-1.5 0-1.5.5-2.7 1.6-3.7 1-1 2.3-1.6 3.8-1.6s2.7.5 3.8 1.6c.8 1 1.4 2.2 1.4 3.7zm-16 24c0 1.1.4 2 1.2 2.8.8.8 1.7 1.2 2.8 1.2 1.1 0 2-.4 2.8-1.2.8-.8 1.2-1.7 1.2-2.8s-.4-2.1-1.2-2.9c-.8-.8-1.7-1.2-2.8-1.2-1.1 0-2 .4-2.8 1.2s-1.2 1.8-1.2 2.9zm-10.7-13.3c0-1.1-.4-2-1.2-2.8s-1.7-1.2-2.8-1.2-2 .4-2.8 1.2-1.2 1.7-1.2 2.8.4 2 1.2 2.8 1.7 1.2 2.8 1.2 2-.4 2.8-1.2 1.2-1.7 1.2-2.8zm25.3-10.7c0-1.1-.4-2-1.2-2.8s-1.7-1.2-2.8-1.2-2 .4-2.8 1.2-1.2 1.7-1.2 2.8.4 2.1 1.2 2.9c.8.8 1.7 1.2 2.8 1.2s2-.4 2.8-1.2c.9-.8 1.2-1.8 1.2-2.9z"/><path id="team-fb" class="st7" d="M245.9 3.9c.5.6.8 1.2.8 2v9.4c0 .8-.3 1.4-.8 2-.5.5-1.2.8-2 .8h-9.4c-.8 0-1.4-.3-2-.8-.5-.6-.8-1.2-.8-2V5.9c0-.8.3-1.4.8-2 .6-.5 1.2-.8 2-.8h9.4c.8 0 1.4.3 2 .8zM241.3 9h-1.4v-.7c0-.2 0-.4.1-.5s.2-.1.5-.1h.8V6.1H240c-.7 0-1.1.2-1.4.5-.2.3-.4.9-.4 1.5V9h-1.1v1.6h1.1v4.5h1.7v-4.5h1.2l.2-1.6z"/><path id="team-instagram" class="st7" d="M246.3 57.9c.5.6.8 1.2.8 2v9.4c0 .8-.3 1.4-.8 2-.5.5-1.2.8-2 .8h-9.4c-.8 0-1.4-.3-2-.8-.5-.6-.8-1.2-.8-2v-9.4c0-.8.3-1.4.8-2 .6-.5 1.2-.8 2-.8h9.4c.9.1 1.5.3 2 .8zm-2 2.5c0-.2-.1-.4-.4-.4h-8.6c-.2 0-.4.1-.4.4v8.7c0 .2.1.4.4.4h8.7c.2 0 .4-.1.4-.4l-.1-8.7zm-2.8 2.3h1.9v-1.8h-1.9v1.8zm-1.8 0c.5 0 .9.2 1.3.6.4.4.6.8.6 1.3s-.2.9-.6 1.3c-.4.4-.8.6-1.3.6s-.9-.2-1.3-.6c-.4-.4-.6-.8-.6-1.3s.2-.9.6-1.3.8-.6 1.3-.6zm2.6 1.5h1v4.2h-7.4v-4.2h1c0 .2-.1.4-.1.5 0 .8.3 1.4.8 2 .5.5 1.2.8 2 .8s1.4-.3 2-.8c.5-.5.8-1.2.8-2 .1-.1.1-.2-.1-.5z"/><path id="team-li" class="st7" d="M246.3 39.9c.5.6.8 1.2.8 2v9.4c0 .8-.3 1.4-.8 2-.5.5-1.2.8-2 .8h-9.4c-.8 0-1.4-.3-2-.8-.5-.6-.8-1.2-.8-2v-9.4c0-.8.3-1.4.8-2 .6-.5 1.2-.8 2-.8h9.4c.9 0 1.5.3 2 .8zm-8.5 3.8H236v6.6h1.9l-.1-6.6zm0-1.3c0-.2-.1-.4-.2-.6-.2-.2-.4-.3-.7-.3s-.5.1-.6.3c-.1.1-.2.3-.2.6s.1.5.2.6c.2.2.4.2.6.2.3 0 .5-.1.6-.2.2-.2.3-.4.3-.6zm6.5 3.8c0-.5-.1-.9-.2-1.3s-.3-.6-.5-.8-.4-.3-.6-.3c-.2-.1-.4-.1-.6-.1-.7 0-1.3.2-1.9.6v-.6h-1.8v6.6h1.9v-4l.1-.2c.1-.1.2-.3.4-.4 0-.3.3-.3.6-.3.5 0 .7.3.7.8v4h1.9v-4z"/><path id="team-tw" class="st7" d="M245.9 22c.5.6.8 1.2.8 2v9.4c0 .8-.3 1.4-.8 2-.5.5-1.2.8-2 .8h-9.4c-.8 0-1.4-.3-2-.8-.5-.6-.8-1.2-.8-2V24c0-.8.3-1.4.8-2 .6-.5 1.2-.8 2-.8h9.4c.8 0 1.4.3 2 .8zm-2 4.1c-.3.1-.6.2-1.1.3.4-.3.7-.6.8-1-.4.2-.7.4-1.2.4-.3-.4-.8-.6-1.3-.6s-1 .2-1.3.5c-.4.4-.6.8-.6 1.3 0 .1 0 .2.1.4-1.6 0-2.8-.7-3.8-1.9-.2.3-.3.7-.3 1 0 .6.3 1.2.8 1.5-.3 0-.6-.1-.8-.2 0 .4.1.8.4 1.2.3.3.7.5 1.1.6-.2 0-.4.1-.5.1h-.4c.3.8.9 1.2 1.8 1.2-.7.5-1.4.8-2.3.8h-.4c.8.5 1.8.8 2.8.8 1.6 0 2.9-.5 3.8-1.6 1-1.1 1.4-2.3 1.4-3.6v-.2c.4-.3.7-.6 1-1z"/><path id="stats-graphic" class="st3" d="M137.7 46.9h43.4v2h-45.3v-8h-3.9v-2h3.9V31h-3.9v-2h3.9v-7.8h-3.9v-2h3.9v-7.9h-3.9v-2h3.9V1.4h2v30.8l13.9-16.4 9.8 9.9 18.9-22.8 1.6 1.2-20.6 24.4-9.8-9.8-13.9 16.8v11.4z"/><path id="stats-client" class="st4" d="M139.3 84.7c-3.5 3.5-5.2 7.8-5.2 12.7v4h22v2H132v-6c0-4.6 1.4-8.6 4.1-12.2 2.7-3.6 6.2-5.9 10.4-7-2-1-3.6-2.5-4.8-4.4s-1.9-4-1.9-6.4c0-3.3 1.2-6.2 3.6-8.5 2.4-2.3 5.2-3.5 8.5-3.5s6.2 1.2 8.5 3.5 3.5 5.2 3.5 8.5c0 2.3-.6 4.5-1.8 6.4s-2.8 3.4-4.8 4.4c3.4.8 6.4 2.6 9.1 5.3h-3c-3.3-2.7-7.1-4-11.3-4-5.1-.1-9.3 1.7-12.8 5.2zm12.9-7.3c2.8 0 5.2-1 7.1-2.9 2-1.9 2.9-4.3 2.9-7.1s-1-5.2-2.9-7.1c-2-1.9-4.3-2.9-7.1-2.9s-5.2 1-7.1 2.9c-1.9 1.9-2.9 4.3-2.9 7.1s1 5.2 2.9 7.1c1.9 1.9 4.2 2.9 7.1 2.9zm26.1 22.1h-6.1v6h-2v-6H164v-2.1h6.1v-6h2v6h6.1l.1 2.1z"/><path id="stats-heart" class="st5" d="M181.4 124.1c0 3.7-1.3 6.9-3.9 9.5l-21.1 20-21.1-19.8c-2.6-2.7-3.9-5.9-3.9-9.6s1.3-6.9 3.9-9.5c2.5-2.6 5.8-3.8 9.8-3.8 3.7 0 6.8 1.3 9.4 3.8 1 1.3 1.8 2.3 2.2 2.9.5-1 1.2-2 2.2-2.9 2.5-2.6 5.7-3.8 9.4-3.8s6.8 1.3 9.4 3.8c2.4 2.5 3.7 5.6 3.7 9.4zm-2.1-.4c0-3.1-1.1-5.8-3.3-8.1-2.1-2.2-4.8-3.3-8-3.3s-5.9 1.1-8.1 3.3c-.5.7-1.1 1.4-1.7 2.3l-1.8 2.9-1.8-2.9c-.4-.7-.9-1.4-1.7-2.3-2.2-2.2-4.9-3.3-8.1-3.3-3.2 0-5.9 1.2-8.2 3.5-2.2 2.2-3.3 4.9-3.3 8.1s1.1 5.9 3.3 8.2l19.8 19 19.8-19c2.1-2.1 3.1-4.8 3.1-8.4z"/><path id="stats-gift" class="st8" d="M181.7 177.6h-2v27h-46.1v-27h-2v-7.8h15.9c-1-1.1-1.5-2.4-1.5-3.8 0-1.6.6-3 1.7-4.1s2.5-1.7 4.1-1.7c2.2 0 3.7.8 4.8 2.5 1-1.6 2.6-2.5 4.8-2.5 1.6 0 3 .6 4.1 1.7 1.1 1.1 1.7 2.5 1.7 4.1 0 1.4-.5 2.7-1.5 3.8h15.9l.1 7.8zm-22.9-14.3c-.7.8-1.1 1.7-1.1 2.7v3.8h3.8c1 0 2-.4 2.7-1.1.8-.8 1.2-1.7 1.2-2.7 0-1.1-.4-2-1.1-2.8s-1.7-1.1-2.8-1.1-2 .4-2.7 1.2zm-9.6 5.4c.8.8 1.7 1.1 2.7 1.1h3.8V166c0-1-.4-2-1.1-2.7-.7-.8-1.6-1.2-2.7-1.2s-2 .4-2.8 1.1c-.7.8-1.1 1.7-1.1 2.8 0 1.1.3 2 1.2 2.7zm-15.7 6.9h22.1v-3.8h-22.1v3.8zm2 27.1h20.2v-25.1h-20.2v25.1zm42.3-25.1h-20.2v25.1h20.2v-25.1zm2-5.8h-22.1v3.8h22.1v-3.8z"/><path id="contact-facebok" class="st6" d="M224.3 2.9c.5.5.7 1.3.7 2.5 0 10.4 0 18.3-.1 23.5 0 1.2-.2 2.1-.7 2.5-.5.5-1.3.7-2.5.7H212c-.7 0-1.1-.1-1.4-.4-.3-.2-.4-.7-.4-1.3v-5.1c0-2.2 0-3.9.1-5.1 0-.6-.1-1-.3-1.2s-.6-.3-1.1-.3c-.5.1-1.4.1-2.5 0-.5 0-.7-.2-.7-.5 0-.4.2-.6.7-.6h2.6c.5 0 .8 0 1-.2s.2-.5.2-.9c-.1-1.1-.1-2.2 0-3.3 0-1.2.4-2.2 1.2-2.8s1.8-.8 3-.6c1 .1 1.9.4 2.6.8 0 0 .1 0 .1.1.5.2.7.5.6.8-.2.4-.6.5-1.2.2-1.1-.5-2-.7-2.9-.7-1.2 0-1.9.6-2.1 1.7-.1.4-.2.9-.2 1.3v3.1c0 .3.4.5.9.5h4.5c.7 0 1 .2 1 .6 0 .5-.4.8-1.1.7-.9 0-2.4 0-4.5-.1-.4 0-.7 0-.8.2s-.2.4-.2.8c.1 3.2.1 6.5 0 9.8 0 .7.4 1.1 1.1 1.1h2.9c1 0 2.1 0 3.4.1 1.2 0 2.2.1 2.9.1.8 0 1.3-.1 1.5-.4s.4-.8.4-1.6l.2-23.2c0-1.1-.1-1.7-.4-1.9-.2-.2-.9-.3-2-.4-5-.2-12.6-.2-22.8-.2-.9 0-1.5.1-1.7.3.2.4 0 1 0 1.9 0 0-.1 7.7-.2 23.1 0 1.1.1 1.7.4 1.9.3.2.9.4 1.9.4 2.3 0 3.9 0 5 .1.8 0 1.2.2 1.3.6 0 .5-.4.7-1.2.7h-5.9c-1.7-.1-2.6-1-2.6-2.8V17.3h.1v-12c0-1.2.2-2 .7-2.5.3-.4 1.1-.6 2.3-.6h23.4c1.2 0 2 .2 2.5.7z"/><path id="contact-twitter" class="st6" d="M224 51.6c-.3.6-.6 1.1-.9 1.3-.5.4-1 .8-1.3 1.4-.3.6-.5 1.1-.6 1.5s-.2 1-.3 1.8c-.4 3.6-1.8 6.9-4.3 9.7s-5.5 4.6-9.1 5.4c-4.6 1-8.8.4-12.7-2 0 0-.1-.1-.3-.2s-.3-.1-.3-.2c0 0-.1-.1-.2-.3-.1-.1-.1-.3 0-.4 0-.2.1-.3.2-.3.1-.1.2-.1.3-.1s.2 0 .4.1h.3c2.4.3 4.2.1 5.5-.4.6-.2.9-.1 1.1.3.1.4-.2.6-.7.8-.4.1-.9.3-1.6.4-.7.2-1.2.3-1.6.4 2.2.9 4.4 1.3 6.4 1.2 4.3-.2 7.8-1.7 10.5-4.4s4.4-6 5-9.8c.1-.4.1-.7.1-.8v-1.8c0-.3.1-.5.1-.6.1-.1.1-.3.2-.5s.2-.4.3-.5.3-.2.5-.4c.2-.1.4-.3.6-.4-.1 0-.2-.1-.2-.2l-.1-.1c-.1 0-.3 0-.6.1s-.5.1-.6.1c-.2 0-.3-.1-.4-.4-.1-.2-.1-.4 0-.6.1-.1.3-.3.5-.4.2-.1.4-.2.5-.3l.4-.5-.1-.1c-1.1.5-2.3.3-3.5-.6-1.7-1.1-3.4-1.2-5.2-.2s-2.8 2.5-2.8 4.6c-.1 1.2-.2 1.9-.4 2.1-.4.1-1.1.1-2.3-.2-3.4-.5-6.7-2.3-9.9-5.2-.5.7-.6 1.7-.4 2.8.2 1.1.7 2.1 1.5 2.9.1.1.2.2.5.3.2.1.4.3.4.4v.6c-.1.2-.3.4-.4.4-.2 0-.4 0-.7-.1s-.5-.1-.6-.1c-.2-.1-.4-.1-.6-.2.4 2 1.4 3.5 3.3 4.3l.5.1c.2 0 .4.1.5.2.1.1.1.3.1.5-.1.4-.6.6-1.5.6l-.6.1c.7 1.4 1.9 2.4 3.6 2.8h.4s.2 0 .4.1c.2 0 .3.1.4.1.1 0 .2.1.2.2.1.1.1.2.1.4-.1.4-.5.5-1.2.4-2-.4-3.4-1.3-4.4-2.9 0 0-.1-.1-.2-.3-.1-.2-.2-.3-.2-.4s-.1-.2-.2-.4-.1-.3-.1-.4v-.4c0-.2.1-.3.1-.5V62l-.3-.3-.2-.2c-1-1-1.6-2.3-1.9-3.8 0 0 0-.2-.1-.4 0-.2-.1-.3-.1-.4v-.3c0-.1 0-.2.1-.3s.1-.1.3-.2c0 .4.2.3.4.3.4 0 .4-.2.1-.6-.1-.1-.1-.1-.1-.2-.9-1.7-.9-3.6-.2-5.5.2-.7.5-1 .7-1.1.3 0 .6.2 1.1.7 2.5 2.8 5.5 4.5 9 5.3.6.1 1 .1 1.2 0s.4-.5.4-1.1c.4-2.4 1.5-4.2 3.5-5.3s3.9-1.1 5.8 0c1.6.9 3.2.9 4.6 0 .5-.2.9-.2 1.1 0 .2.2.2.5-.1 1.1 0 .2-.1.4-.2.6-.2.2-.3.3-.3.5.2.2.4.2.6.1.1 0 .2-.1.2-.1.8 0 .9.2.6.8z"/><path id="contact-instagram" class="st6" d="M224.7 110c0 1.1-.2 1.8-.6 2.2-.4.4-1.2.7-2.2.7h-24.4c-1.8 0-2.8-.9-2.8-2.8v-6c0-.7.2-1.1.6-1.1.4 0 .5.4.5 1.1v5.8c0 1.3.6 1.9 1.8 1.9h24c1.2 0 1.8-.6 1.8-1.8v-9.4c0-.4-.1-.7-.2-.9-.2-.2-.4-.2-.8-.2-.3.1-.6.1-.9 0-1.3-.2-2.3-.1-3.1.3s-1.4 1.3-1.8 2.5c-.4 1.4-1.3 2.5-2.8 3.3-1.5.9-3 1.2-4.4 1.1-1.8-.2-3.3-.8-4.6-1.9-1.2-1-2.1-2.3-2.5-3.9-.3-1.1-.9-1.6-2-1.5H196c-.9.1-1.3-.3-1.3-1.1V85.2c.1-1.5 1-2.3 2.8-2.3H222c1.8 0 2.7.9 2.7 2.8V110zm-10-6.6c1.3-1.3 1.9-2.9 1.9-4.8 0-1.8-.6-3.4-1.9-4.6-1.3-1.2-2.9-1.9-4.8-2-1.8 0-3.3.6-4.7 2-1.3 1.4-2 2.9-2 4.7 0 1.8.7 3.4 2.1 4.7 1.4 1.4 2.9 2 4.7 1.8 1.8.1 3.3-.5 4.7-1.8zm8.6-5.5c.2-.2.3-.5.3-1.1-.1-3.7-.1-7.3 0-11 0-.7-.1-1.1-.4-1.4s-.8-.4-1.5-.4h-24.1c-.6 0-1.1.1-1.3.4-.3.3-.4.7-.4 1.4V97c0 .5.1.8.3.9.2.2.5.2.9.2 2.1 0 3.2 0 3.5.1.5.1.9.1 1.2-.1.2-.2.4-.6.5-1.1.4-1.8 1.4-3.3 2.9-4.4 1.5-1.2 3.1-1.7 4.9-1.6 1.7-.1 3.2.5 4.6 1.6 1.4 1.1 2.3 2.5 2.8 4.3.2.9.7 1.3 1.5 1.3.9-.1 2-.1 3.2-.1.5.1.8 0 1.1-.2zm-2.1-11.1c.2.3.4 1.1.4 2.5 0 1.3-.2 2.1-.5 2.4s-1.1.5-2.3.5c-1.3 0-2-.2-2.4-.5-.3-.4-.5-1.2-.5-2.6 0-1.3.1-2.1.4-2.3.3-.2 1.2-.4 2.6-.4 1.3 0 2.1.1 2.3.4zm-.9 2.3c0-.7-.2-1.1-.4-1.4s-.6-.3-1.3-.1c-.6-.1-1.1-.1-1.3.1-.3.2-.4.7-.4 1.3 0 .7.1 1.2.3 1.5.3.3.7.4 1.4.4s1.1-.2 1.4-.4c.3-.3.3-.7.3-1.4zm-8 13.5v.3c.1.1 0 .1-.1.2s-.2.1-.2.1-.1.1-.3.1l-.2.1c-.9.3-1.5.4-1.8.4-1.6 0-2.9-.7-4-2s-1.4-2.8-1-4.2c0 0 0-.1.1-.3 0-.2.1-.3.1-.4s.1-.1.2-.2.2-.1.4 0c.4 0 .5.4.5 1.1-.3 1.6.1 2.9 1.2 3.8s2.4 1.2 4 .7c.6-.2 1-.1 1.1.3z"/><path id="contact-gplus" class="st6" d="M213 143.3c.3 2 0 3.7-1.1 5-.7.9-1.8 1.5-3.2 1.9-1 .2-1.8.4-2.3.4h-2.9c-.2 0-.6 0-1.1-.1-1.6-.2-2.9-.5-3.8-.9-1.3-.6-2.2-1.5-2.6-2.6-.2-.5-.3-1-.3-1.2v-1.2c0-.1.1-.2.1-.2 0-.5.2-1 .5-1.5l.2-.4c.2-.1.4.1.6.4.2.4.3.7.1.9-.2.5-.3 1.2-.2 2.1.2 1.1.7 1.9 1.8 2.5.6.4 1.2.6 1.9.7 1.4.4 3.1.5 5.1.4 1.1 0 2-.1 2.8-.4 1.1-.3 2-.9 2.6-1.7.4-.7.6-1.6.6-2.7 0-1.3-.4-2.4-1.5-3.3-.1-.1-.2-.1-.3-.1-2.3-.3-4.2-.4-5.8-.4-1.5.1-2.8.3-3.7.5-.1 0-.2 0-.3.1-.1 0-.2.1-.3.1s-.2-.1-.4-.2c-.1-.2-.2-.3-.3-.5s0-.3 0-.4c1.7-.7 4.1-1 7-.9.2 0 .4 0 .8.1.4 0 .6.1.8.1-.1-.1-.3-.3-.6-.5s-.5-.4-.6-.4c-1-.8-1.3-1.8-1.1-2.9 0-.1 0-.1-.1-.2h-.1c-.9.2-1.8.2-2.6 0-2.7-.5-4.5-2-5.4-4.5-.4-1.4-.6-2.8-.4-4.4.2-1.3.6-2.4 1.3-3.3.9-1.3 2.4-2.2 4.4-2.7.2 0 .5-.1.8-.1.3-.1.5-.1.7-.1 2.5-.2 5.1-.2 8 0 .2 0 .3.1.4.4.1.2.1.4-.1.6-.1.2-.3.3-.5.3H209c-.1 0-.2 0-.3.1.1 0 .2.1.3.2l.3.3c1.4 1.4 2.2 2.9 2.4 4.5.2 2.5-.4 4.5-1.8 6-.4.4-1 .8-1.9 1.5-.3.2-.5.4-.7.6-.8.7-.8 1.4-.2 2.2.3.4.7.7 1.2.9 1.7 1.2 2.6 1.8 2.7 1.9 1 .8 1.8 2 2 3.1zm-3.8-11.3c.7-.7 1.1-1.7 1.3-3.1.2-1.5 0-2.7-.6-3.6-1.1-1.9-2.5-2.9-4.2-3.2-1.6-.2-3.2 0-4.7.8-1.2.6-2 1.5-2.4 2.7-.3.8-.5 1.7-.5 2.9 0 1.1.3 2.1.8 3.1 1.1 1.9 2.9 2.9 5.4 2.9 1.7 0 3.2-.8 4.9-2.5zm14.3 2.8v.4c-.2.3-.4.5-.9.5h-3c-.3 0-.4.1-.4.4v3.2c0 .6-.2.9-.6.9-.4-.1-.6-.4-.6-.9V136c0-.2-.1-.3-.3-.3h-3.2c-.5 0-.8-.2-.8-.6 0-.4.3-.6.8-.6h3.1c.2 0 .4-.1.4-.4v-3.6c.1-.4.3-.6.6-.5.4 0 .6.2.6.5v3.5c0 .2.1.3.4.3h3.2c.4.2.5.4.7.5z"/><path id="select-growth" class="st3" d="M53.7 209.6v48h-48v-48h48zm-46 2V249l5.9-6.8 6 4 10-14.1 9 7.1 13.2-19v-8.6H7.7zm44 44v-31.8L39 242.1l-9-7.1-10 13.8-6.1-4-6.2 7.1v3.6l44 .1z"/><path id="select-screen" class="st8" d="M87 245.7v3.9l9.4 5.3-.9 1.8-9.6-5.4-9.5 5.3-.9-1.8 9.4-5.3v-3.9h-25v-35.8h52v35.9H87zm-25.1-2h48v-31.9h-48v31.9zm27-26.2l1.9.6-5.5 18.5-6.4-8.9-4.2 8.3-5.7-11.4-3.1 11.6-2-.5 4.6-16.6 6.2 12.5 4-7.7 6 8.3 4.2-14.7zm15.3 6c1.2 1.2 1.8 2.6 1.8 4.3 0 1.6-.6 3-1.8 4.2-1.2 1.2-2.6 1.8-4.3 1.8-1.6 0-3-.6-4.2-1.8s-1.8-2.6-1.8-4.2c0-1.7.6-3.2 1.8-4.3 1.2-1.2 2.6-1.8 4.2-1.8s3.1.6 4.3 1.8zm-1.5 7c.8-.8 1.2-1.7 1.2-2.8s-.4-2-1.2-2.8c-.8-.8-1.8-1.2-2.9-1.2s-2 .4-2.8 1.2-1.2 1.7-1.2 2.8.4 2 1.2 2.8c.8.8 1.7 1.2 2.8 1.2s2.1-.4 2.9-1.2z"/><path id="select-range" class="st4" d="M163.7 218.6c-.7.9-1.7 1.5-2.9 1.7v34.1h-2v-34.1c-1.2-.2-2.1-.8-2.9-1.8-.6-.9-1-1.9-1-3.1 0-1.4.5-2.6 1.5-3.6s2.2-1.5 3.6-1.5c1.3 0 2.5.5 3.5 1.5s1.5 2.2 1.5 3.6c-.2 1.3-.5 2.3-1.3 3.2zm-1.7-1c.6-.6.9-1.3.9-2.2s-.3-1.6-.9-2.2c-.6-.5-1.3-.8-2.1-.8-.9 0-1.6.3-2.2.9-.5.5-.8 1.3-.8 2.1 0 .9.3 1.6.9 2.2.6.6 1.3.9 2.2.9.7 0 1.4-.3 2-.9zm-34.2 32.6c.7.9 1.1 2 1.1 3.2 0 1.4-.5 2.6-1.5 3.6s-2.2 1.5-3.6 1.5c-1.3 0-2.5-.5-3.5-1.5s-1.5-2.2-1.5-3.6c0-1.2.4-2.3 1.1-3.2s1.7-1.5 2.9-1.7v-34.1h2v34.1c1.3.2 2.3.8 3 1.7zm-1.7 5.3c.5-.5.8-1.3.8-2.1 0-.9-.3-1.6-.9-2.2-.6-.6-1.3-.9-2.2-.9-.8 0-1.5.3-2 .9-.6.6-.9 1.3-.9 2.2s.3 1.6.9 2.2c.6.5 1.3.8 2.1.8s1.6-.3 2.2-.9zm19.7-24.3c.7.9 1.1 2 1.1 3.2s-.4 2.2-1.1 3.2c-.7.9-1.7 1.5-2.9 1.8v15h-2.1v-15.1c-1.2-.2-2.1-.8-2.9-1.8-.7-.9-1.1-2-1.1-3.2s.4-2.2 1.1-3.2c.7-.9 1.7-1.5 2.9-1.8v-14.9h2.1v15.1c1.2.2 2.2.8 2.9 1.7zm-.9 3.2c0-.8-.3-1.5-.9-2.1-.6-.6-1.3-.9-2.1-.9s-1.5.3-2.1.9c-.6.6-.9 1.3-.9 2.1s.3 1.5.9 2.1c.6.6 1.3.9 2.1.9s1.5-.3 2.1-.9c.6-.6.9-1.3.9-2.1z"/><path id="select-calendar" class="st3" d="M220.9 209.7v48h-48v-48h48zm-46 2v9h44v-9h-44zm44 44v-33h-44v33h44zm-31-37.9h3v-3h-3v3zm15 0h3v-3h-3v3zm-12.8 11.7h1.8v15.7h-2.1v-11.1h-3.9v-1.6h.4c1-.1 1.7-.1 2-.2.4 0 .7-.3 1.1-.6.4-.4.6-1 .7-1.8v-.4zm15.6 6.5c1 1 1.5 2.3 1.5 4 0 1.6-.5 2.9-1.6 3.9-1.1 1.1-2.4 1.6-3.9 1.6-1.6 0-2.8-.5-3.8-1.4s-1.5-2.1-1.5-3.6v-.4h2.1v.4c0 .9.3 1.7.9 2.3.6.6 1.4.9 2.3.9 1 0 1.8-.4 2.4-1.1.6-.7.9-1.6.9-2.6s-.3-1.8-.9-2.5c-.6-.7-1.4-1-2.5-1-1.3 0-2.3.5-3 1.6l-.1.1h-1.8l1.6-8.4h8.1v2h-6.5l-.7 3.6c.8-.5 1.6-.8 2.6-.8 1.6-.1 3 .4 3.9 1.4z"/><path id="select-award" class="st4" d="M309.2 234.6c1.6 2.5 2.4 5.4 2.4 8.5 0 4.3-1.5 8.1-4.7 11.2-3.2 3.2-6.8 4.7-11.3 4.7-4.3 0-8.1-1.5-11.3-4.7-3.2-3.2-4.7-6.8-4.7-11.3 0-3.1.8-5.9 2.4-8.5 1.6-2.5 3.8-4.5 6.4-5.8-2.9-7-4.4-11.2-4.4-12.4v-6.8h23v6.8c0 1-1.4 5.1-4.4 12.5 2.7 1.3 4.9 3.2 6.6 5.8zm-19-6.4c1.8-.6 3.7-1 5.5-1 1.9 0 3.7.4 5.4 1 2.9-6.8 4.3-10.6 4.3-11.8v-5h-8.8v12.1h-1.8v-12.1H286v5c-.1.8 1.3 4.8 4.2 11.8zm19.6 14.8c0-4-1.4-7.3-4.1-10-2.8-2.7-6.1-4.1-10-4.1s-7.2 1.4-10 4.1c-2.8 2.7-4.1 6-4.1 10s1.4 7.3 4.1 10c2.8 2.7 6.1 4.1 10 4.1s7.2-1.4 10-4.1c2.7-2.6 4.1-5.9 4.1-10zm-3.6 0c0 3-1.1 5.5-3.2 7.6-2.1 2.1-4.6 3.1-7.6 3.1s-5.5-1-7.6-3.1-3.2-4.5-3.2-7.6c0-3.1 1.1-5.5 3.2-7.6 2.1-2.1 4.6-3.1 7.6-3.1s5.5 1.1 7.6 3.1c2.3 2.2 3.2 4.7 3.2 7.6zm-1.8 0c0-2.3-.9-4.4-2.6-6.2-1.7-1.7-3.8-2.6-6.3-2.6-2.4 0-4.6.9-6.3 2.6-1.7 1.7-2.6 3.9-2.6 6.2 0 2.3.9 4.4 2.6 6.2 1.7 1.7 3.8 2.6 6.3 2.6 2.4 0 4.6-.9 6.3-2.6 1.9-1.7 2.6-3.7 2.6-6.2z"/><path id="select-arrow" class="st5" d="M225.7 237.4h20v20h-20v-20zm2 18h16v-16h-16v16zm35.8-34.5l-14.6 14.7-1.4-1.4 14.8-14.8h-12.7v-2h15.9v16h-2v-12.5zm10.1-11.5v48h-24v-2h22v-44h-44v22h-2v-24h48z"/></svg>