<?xml version="1.0" encoding="utf-8"?>
<!-- Svg Vector Icons : http://www.onlinewebfonts.com/icon -->
<!DOCTYPE svg PUBLIC "-//W3C//DTD SVG 1.1//EN" "http://www.w3.org/Graphics/SVG/1.1/DTD/svg11.dtd">
<svg version="1.1" xmlns="http://www.w3.org/2000/svg" xmlns:xlink="http://www.w3.org/1999/xlink" x="0px" y="0px" viewBox="0 0 1000 1000" enable-background="new 0 0 1000 1000" xml:space="preserve">
<metadata> Svg Vector Icons : http://www.onlinewebfonts.com/icon </metadata>
<g><path d="M879.8,767c3.3,9.8,5.9,22.3,7.8,37.7c2,15.3,2.9,30.8,2.9,46.5c0,15.6-1.1,30.3-3.4,44c-2.3,13.7-5.7,23.8-10.3,30.3c-3.3,4.6-12.4,9.5-27.4,14.7c-15,5.2-33.7,10.1-56.2,14.7c-22.5,4.6-47.4,9-74.8,13.2c-27.4,4.2-54.9,8-82.6,11.2c-27.7,3.3-54.3,5.9-79.7,7.8c-25.4,2-47.6,2.9-66.5,2.9c-28,0-61.6-2-100.7-5.9c-39.1-3.9-77.1-8.8-113.9-14.7s-69.3-11.9-97.3-18.1c-28-6.2-45-11.6-50.9-16.1c-6.5-5.2-11.6-21-15.2-47.4c-3.6-26.4-2.4-60.5,3.4-102.2c3.9-24.1,13.9-42.4,29.8-54.8c16-12.4,34.4-22.3,55.3-29.8c20.9-7.5,42.5-14,65-19.6s42.2-13.9,59.2-24.9c12.4-7.8,22-15.2,28.9-22c6.8-6.8,12.1-13.7,15.6-20.5c3.6-6.8,5.7-14,6.4-21.5c0.7-7.5,0.7-15.5,0-24L291,555.7c-11.7-7.8-22.2-19.9-31.3-36.2c-7.8-13.7-15-32.4-21.5-56.2c-6.5-23.8-9.8-54.6-9.8-92.4c0-31.3,1.6-64.7,4.9-100.2c3.3-35.5,11.2-69.4,24-101.7c12.7-32.3,31.6-61.3,56.7-87c25.1-25.8,59.2-44.8,102.2-57.2C441,16.2,465.7,12,490.5,12c7.2-0.7,14-1.1,20.5-1.5c6.5-0.3,13.4-0.5,20.5-0.5c31.9,0,60.6,6.5,86.1,19.6c25.4,13,47.6,30.2,66.5,51.3c18.9,21.2,34.7,45,47.4,71.4s23,53.1,30.8,80.2c7.8,27.1,13.2,53.1,16.1,78.2c2.9,25.1,3.7,46.5,2.4,64.1c-1.3,27.4-5.4,51.8-12.2,73.4c-6.8,21.5-13.9,40.1-21,55.7c-8.5,18.3-17.9,34.6-28.4,48.9l-96.8,15.7c-1.3,17.6,2.6,35,11.7,52.3c9.1,17.3,29.3,32.4,60.6,45.5c15.6,6.5,33.1,12.2,52.3,17.1c19.2,4.9,37.8,10.6,55.7,17.1s33.9,15,47.9,25.4C864.9,736.4,874.6,750.1,879.8,767L879.8,767z"/></g>
</svg>