<svg xmlns="http://www.w3.org/2000/svg" viewBox="0 0 286.273 1099.697">
    <defs>
        <style>
            .cls-1{fill-rule:evenodd;fill:url(#linear-gradient)}
        </style>
        <linearGradient id="linear-gradient" x2="1" y1=".585" y2=".584" gradientUnits="objectBoundingBox">
            <stop offset="0" stop-color="#f3f9a7"/>
            <stop offset="1" stop-color="#cac531"/>
        </linearGradient>
    </defs>
    <path id="tea" d="M223.777-12.392c-3.041 7.127-6.906 13.85-6.906 22.558 0 28.4 59.013 30.833 59.013 64.255s-34.529 35.945-34.529 73.142c0 48.424 65.918 85.98 65.918 155.854 0 41.311-25.537 48.533-37.668 48.533s-36.412-12.741-36.412-44.432 16.323-43.024 16.323-74.509-19.264-43.065-30.762-43.065-18.834 14.683-18.834 36.229-12.954 45.115-35.156 45.115-32.017-21.669-32.017-39.647c0-58.1 69.685-118.707 69.685-169.525s-41.8-73.142-55.874-73.142S189.248-37 189.248-37s37.57 17.482 34.529 24.608zm59.013 440.9c0-16.227-7.842-30.077-20.089-30.077s-18.834 11.114-18.834 21.191 7.487 23.241 27 23.241c10.102.002 11.923-7.441 11.923-14.353zm-49.6-53.318c0-6.751 5.924-11.621 12.556-11.621s8.789 6.509 8.789 11.621-5.6 11.621-10.672 11.621-10.669-4.868-10.669-11.619zm-56.5-30.077c18.55 0 42.062 14.661 42.062 61.521s-19.462 54.659-19.462 88.18c0 27.929 25.74 14.033 25.74 48.533s-30.13 34.534-30.13 61.524c0 42.51 48.968 31.491 48.968 69.04 0 51.336-107.353 17.007-107.353 108 0 24.294 20.717 54.932 20.717 97.067 0 57.72-37.668 31.055-37.668 133.3 0 112.235-67.174 2.051-67.174 2.051s67.8-48.062 67.8-110.055-47.711-81.379-47.711-131.246c0-41.65 42.69-70.544 42.69-111.422 0-45.44-94.169 8.016-94.169-72.458 0-68.083 46.252-69.724 55.874-69.724 38.4 0 61.494 34.178 75.963 34.178S167.9 541.15 167.9 535.147c0-39.465-39.551-66.551-39.551-129.878.004-41.887 29.794-60.154 48.344-60.154z" class="cls-1" transform="rotate(-180 153.637 531.348)"/>
</svg>
